<?xml version="1.0" standalone="no"?>
<!DOCTYPE svg PUBLIC "-//W3C//DTD SVG 20010904//EN"
 "http://www.w3.org/TR/2001/REC-SVG-20010904/DTD/svg10.dtd">
<svg version="1.0" xmlns="http://www.w3.org/2000/svg"
 width="500.000000pt" height="500.000000pt" viewBox="0 0 500.000000 500.000000"
 preserveAspectRatio="xMidYMid meet">
<metadata>
Created by potrace 1.14, written by Peter Selinger 2001-2017
</metadata>
<g transform="translate(0.000000,500.000000) scale(0.100000,-0.100000)"
fill="#000000" stroke="none">
<path d="M2190 4605 c-36 -8 -87 -14 -113 -15 -31 0 -49 -5 -53 -14 -3 -8 -13
-12 -25 -9 -10 3 -34 -2 -53 -11 -19 -9 -48 -16 -65 -16 -18 0 -43 -7 -56 -16
-14 -9 -40 -16 -60 -16 -19 0 -35 -4 -35 -9 0 -4 -23 -15 -51 -23 -28 -9 -57
-20 -63 -25 -6 -5 -47 -28 -91 -51 -44 -23 -93 -49 -109 -58 -16 -8 -37 -22
-47 -31 -9 -9 -39 -32 -66 -51 -26 -19 -76 -59 -111 -87 -34 -29 -66 -53 -70
-53 -12 0 -72 -58 -72 -69 0 -6 -7 -11 -15 -11 -18 0 -185 -169 -185 -187 0
-6 -10 -19 -21 -27 -12 -8 -27 -24 -33 -34 -6 -11 -39 -62 -74 -113 -88 -130
-282 -529 -282 -580 0 -5 8 -9 18 -10 13 0 13 -2 -5 -9 -27 -11 -34 -33 -37
-119 -2 -37 -6 -73 -10 -80 -4 -7 -3 -18 4 -25 8 -11 8 -15 -2 -18 -10 -4 -12
-62 -11 -264 1 -142 2 -284 3 -314 2 -82 21 -219 31 -226 5 -3 9 -14 9 -25 0
-11 5 -30 12 -42 6 -12 13 -31 14 -42 6 -57 80 -284 108 -330 13 -22 47 -85
74 -140 27 -55 67 -126 88 -157 54 -77 263 -305 320 -348 26 -19 72 -61 103
-94 31 -32 83 -77 116 -101 98 -69 313 -186 377 -206 32 -10 78 -30 101 -43
63 -36 393 -104 607 -126 101 -10 138 -9 310 10 220 23 285 36 385 75 39 15
138 51 220 79 83 29 175 65 205 80 68 35 240 147 298 195 104 85 258 236 275
267 9 19 24 34 32 34 8 0 20 10 26 22 7 13 36 48 66 78 29 30 80 93 112 140
33 47 73 103 89 125 34 46 99 214 114 294 5 30 18 70 29 90 10 20 19 45 19 56
0 22 26 149 42 206 12 42 17 563 6 624 -4 22 -14 82 -23 133 -9 50 -29 143
-46 205 -17 61 -34 128 -38 147 -20 88 -112 320 -148 375 -15 22 -38 60 -51
85 -34 64 -71 110 -88 110 -7 0 -14 9 -14 20 0 18 -54 76 -225 240 -27 26 -93
80 -145 119 -52 39 -115 86 -140 104 -54 40 -153 97 -169 97 -7 0 -21 9 -33
20 -43 40 -265 139 -312 140 -11 0 -38 9 -60 19 -69 33 -178 43 -516 46 -251
3 -340 1 -390 -10z m608 -17 c98 -17 128 -19 143 -10 24 15 30 15 23 -1 -3 -9
13 -17 54 -25 74 -15 199 -66 380 -153 156 -76 228 -122 372 -238 180 -145
271 -245 480 -531 74 -100 144 -244 159 -327 6 -27 16 -67 24 -89 9 -21 21
-68 28 -104 6 -36 16 -73 21 -83 5 -10 13 -41 18 -70 5 -29 16 -90 25 -137 15
-81 35 -282 35 -345 -1 -109 -11 -273 -20 -299 -5 -17 -14 -67 -18 -111 -8
-73 -62 -242 -109 -344 -8 -19 -28 -66 -44 -104 -30 -71 -124 -219 -214 -337
-76 -99 -208 -232 -330 -334 -159 -133 -182 -150 -261 -189 -40 -20 -88 -47
-107 -60 -20 -13 -73 -39 -119 -56 -46 -18 -105 -43 -133 -56 -135 -62 -411
-117 -656 -131 -215 -12 -492 24 -694 91 -127 41 -435 189 -545 261 -126 82
-411 384 -505 534 -102 162 -255 461 -255 497 0 12 -6 34 -14 50 -8 15 -21 57
-30 93 -9 36 -23 92 -31 125 -9 33 -17 99 -19 147 -2 48 -7 92 -11 99 -7 10
-7 108 -1 421 1 53 5 100 8 103 4 4 4 13 2 20 -3 7 -1 16 5 20 6 3 11 17 11
29 0 35 45 207 64 241 9 17 16 34 16 38 0 40 187 381 279 507 52 73 255 283
349 363 167 141 262 199 555 336 48 22 87 45 87 50 0 5 12 11 28 14 67 12 359
79 380 87 12 6 95 13 185 16 89 3 164 8 166 10 10 10 105 2 219 -18z m119 6
c-3 -3 -12 -4 -19 -1 -8 3 -5 6 6 6 11 1 17 -2 13 -5z m180 -40 c-3 -3 -12 -4
-19 -1 -8 3 -5 6 6 6 11 1 17 -2 13 -5z m-1227 -44 c0 -5 -2 -10 -4 -10 -3 0
-8 5 -11 10 -3 6 -1 10 4 10 6 0 11 -4 11 -10z m-1395 -1460 c3 -5 2 -10 -4
-10 -5 0 -13 5 -16 10 -3 6 -2 10 4 10 5 0 13 -4 16 -10z"/>
<path d="M2418 4483 c7 -3 16 -2 19 1 4 3 -2 6 -13 5 -11 0 -14 -3 -6 -6z"/>
<path d="M2230 4464 c-146 -27 -416 -112 -560 -176 -77 -35 -243 -129 -237
-134 2 -2 51 20 108 50 191 99 458 193 694 242 66 14 122 28 124 30 8 7 -52 2
-129 -12z"/>
<path d="M2731 4466 c9 -8 98 -13 93 -5 -3 5 -26 9 -51 9 -26 0 -44 -2 -42 -4z"/>
<path d="M2974 4429 c48 -10 138 -35 198 -54 61 -20 112 -34 114 -32 9 8 -205
80 -276 93 -112 20 -138 15 -36 -7z"/>
<path d="M2415 4396 c-151 -17 -168 -21 -345 -73 -85 -25 -182 -54 -215 -63
-78 -23 -170 -66 -272 -126 -123 -74 -186 -118 -174 -122 7 -2 26 7 44 20 36
27 186 113 262 151 83 41 210 83 405 136 237 64 322 75 535 69 94 -3 158 -2
144 2 -52 15 -276 18 -384 6z"/>
<path d="M2901 4366 c2 -2 18 -6 34 -10 22 -5 26 -4 15 4 -14 9 -59 15 -49 6z"/>
<path d="M3389 4290 c30 -16 62 -36 70 -43 9 -8 41 -26 71 -42 30 -15 74 -41
98 -57 67 -46 49 -24 -22 26 -72 52 -209 130 -246 140 -14 4 -1 -7 29 -24z"/>
<path d="M3180 4281 c127 -47 376 -185 389 -214 2 -5 11 -15 20 -22 9 -8 52
-42 96 -77 44 -35 103 -86 131 -115 48 -47 211 -247 262 -320 43 -61 152 -299
152 -331 0 -7 4 -20 10 -30 27 -48 59 -146 74 -222 43 -230 50 -306 50 -510
-1 -222 -17 -332 -70 -465 -13 -33 -42 -109 -64 -169 -39 -107 -130 -275 -198
-366 -18 -25 -48 -65 -67 -90 -92 -123 -385 -366 -540 -448 -56 -30 -160 -77
-225 -102 -30 -12 -59 -25 -65 -30 -5 -4 -28 -11 -50 -15 -22 -4 -44 -11 -50
-15 -16 -11 -93 -29 -205 -45 -58 -9 -143 -22 -190 -30 -47 -8 -130 -15 -185
-15 -179 1 -309 27 -595 120 -30 10 -68 21 -85 25 -48 10 -252 136 -344 211
-46 38 -100 82 -120 97 -20 15 -40 37 -45 47 -5 11 -15 20 -22 20 -7 0 -17 6
-21 14 -4 8 -37 46 -72 85 -60 67 -96 113 -148 189 -13 18 -23 35 -23 38 0 2
-27 39 -61 81 -33 42 -65 86 -69 98 -5 12 -31 69 -58 126 -83 171 -102 219
-121 303 -37 159 -43 219 -40 383 2 89 2 159 -1 156 -3 -2 -10 -59 -16 -126
-23 -253 34 -502 184 -805 189 -382 566 -762 944 -953 90 -45 181 -71 328 -94
58 -9 132 -23 165 -32 70 -19 227 -20 444 -3 110 8 178 20 290 49 80 21 162
42 181 46 45 10 240 102 345 162 123 72 309 216 365 283 19 24 50 58 67 76 18
18 67 86 109 151 42 65 87 134 99 153 40 61 102 200 150 335 82 228 110 392
107 615 -3 240 -44 474 -115 655 -64 164 -176 384 -230 453 -91 116 -104 132
-172 207 -123 136 -231 225 -448 368 -61 39 -141 76 -227 103 -101 32 -112 29
-20 -5z"/>
<path d="M1218 4007 c-117 -92 -216 -195 -285 -299 -25 -38 -49 -70 -53 -73
-18 -11 -141 -226 -190 -331 -28 -60 -57 -122 -65 -139 -68 -143 -125 -458
-125 -688 0 -143 17 -106 24 54 4 83 11 161 16 174 5 13 16 75 24 138 31 239
82 359 303 716 101 164 196 283 305 381 57 51 118 102 135 114 31 20 42 36 26
36 -5 0 -56 -38 -115 -83z"/>
<path d="M3721 4082 c2 -6 21 -23 41 -39 21 -15 65 -53 99 -83 34 -30 60 -50
58 -44 -2 7 -40 44 -83 83 -80 72 -122 103 -115 83z"/>
<path d="M1353 3982 c-12 -9 -34 -25 -48 -35 -40 -29 -22 -32 22 -4 40 25 72
57 57 57 -5 -1 -19 -8 -31 -18z"/>
<path d="M1192 3861 c-32 -27 -83 -77 -113 -112 -109 -126 -275 -397 -267
-436 2 -9 17 10 34 43 92 178 114 212 163 263 131 136 263 291 247 291 -3 0
-31 -22 -64 -49z"/>
<path d="M3950 3883 c0 -13 29 -38 35 -31 3 3 -4 13 -15 23 -11 10 -20 13 -20
8z"/>
<path d="M4010 3811 c11 -22 30 -37 30 -24 -1 11 -26 43 -34 43 -4 0 -2 -9 4
-19z"/>
<path d="M4050 3760 c0 -5 5 -10 11 -10 5 0 7 5 4 10 -3 6 -8 10 -11 10 -2 0
-4 -4 -4 -10z"/>
<path d="M1905 3665 c-156 -33 -286 -104 -406 -224 -96 -96 -155 -189 -193
-302 -79 -238 -52 -464 81 -686 50 -84 64 -156 52 -272 -12 -107 -55 -189
-149 -282 l-77 -76 66 4 c143 9 343 35 481 63 139 28 305 72 317 84 3 3 -4 28
-16 55 -48 113 -69 273 -51 400 24 178 100 332 227 461 74 75 83 89 83 122 0
27 8 47 31 72 42 48 88 57 146 26 43 -23 43 -23 105 -5 35 10 100 20 145 23
l81 5 -9 26 c-87 230 -273 406 -509 483 -80 26 -114 31 -215 34 -79 2 -144 -2
-190 -11z m-130 -549 c41 -17 65 -60 65 -117 0 -35 -6 -47 -36 -75 -29 -28
-43 -34 -81 -34 -38 0 -50 5 -79 34 -29 29 -34 41 -34 80 0 55 22 93 65 112
39 17 58 17 100 0z m366 -9 c58 -39 74 -98 44 -157 -29 -56 -109 -77 -166 -43
-31 18 -59 67 -59 103 0 55 65 120 121 120 14 0 41 -10 60 -23z"/>
<path d="M4150 3611 c0 -5 5 -13 10 -16 6 -3 10 -2 10 4 0 5 -4 13 -10 16 -5
3 -10 2 -10 -4z"/>
<path d="M4182 3563 c72 -143 112 -233 132 -298 14 -44 39 -125 56 -180 28
-92 30 -95 25 -45 -9 88 -72 275 -136 408 -33 67 -65 122 -70 122 -6 0 -9 -3
-7 -7z"/>
<path d="M736 3158 c-35 -83 -84 -269 -89 -338 l-5 -75 14 60 c8 33 24 101 36
150 11 50 32 121 45 158 26 71 24 107 -1 45z"/>
<path d="M2791 3055 c-171 -32 -297 -99 -422 -224 -97 -97 -155 -189 -193
-302 -72 -216 -56 -435 46 -631 51 -100 183 -256 273 -325 143 -110 405 -219
665 -276 148 -33 368 -65 504 -74 l107 -6 -68 69 c-76 77 -115 142 -138 229
-32 124 -16 227 52 341 85 140 118 277 110 454 -6 132 -28 213 -88 330 -72
140 -194 262 -339 339 -137 74 -354 106 -509 76z m-170 -558 c41 -27 59 -60
59 -108 0 -52 -36 -101 -88 -119 -115 -40 -215 84 -152 188 37 61 122 79 181
39z m369 -5 c14 -10 31 -37 39 -59 22 -61 1 -111 -59 -140 -52 -26 -95 -20
-136 18 -40 38 -48 81 -25 134 32 73 116 95 181 47z m336 12 c113 -54 71 -227
-55 -227 -65 0 -121 57 -121 123 0 54 65 120 118 120 13 0 39 -7 58 -16z"/>
<path d="M630 2699 c0 -11 5 -17 10 -14 6 3 10 13 10 21 0 8 -4 14 -10 14 -5
0 -10 -9 -10 -21z"/>
<path d="M4455 2638 c7 -72 -13 -307 -41 -468 -61 -354 -150 -557 -375 -855
-84 -112 -296 -321 -408 -403 -47 -34 -79 -62 -71 -62 7 0 64 36 126 81 172
123 333 295 466 494 161 243 196 326 266 630 48 211 71 539 42 605 -9 21 -10
18 -5 -22z"/>
<path d="M522 2210 c0 -14 3 -34 8 -45 l9 -20 -1 20 c0 11 -4 31 -8 45 l-8 25
0 -25z"/>
<path d="M604 1903 c6 -36 21 -72 94 -219 80 -161 135 -255 172 -293 19 -20
47 -56 63 -80 26 -39 96 -119 226 -257 104 -110 278 -224 491 -323 230 -106
262 -118 430 -157 138 -31 473 -36 696 -9 286 34 507 105 692 222 69 43 67 42
60 49 -3 3 -43 -13 -87 -36 -284 -142 -628 -220 -975 -220 -263 0 -393 24
-666 120 -254 90 -345 140 -522 291 -165 141 -315 308 -427 477 -76 115 -201
349 -201 375 0 7 -12 30 -26 52 l-25 40 5 -32z"/>
<path d="M3420 830 c0 -5 5 -10 11 -10 5 0 7 5 4 10 -3 6 -8 10 -11 10 -2 0
-4 -4 -4 -10z"/>
</g>
</svg>
